<mxfile host="app.diagrams.net" agent="Mozilla/5.0 (X11; Linux x86_64) AppleWebKit/537.36 (KHTML, like Gecko) Chrome/132.0.0.0 Safari/537.36" version="26.0.16">
  <diagram name="Page-1" id="Xq1hIofhCXbODVmMwuih">
    <mxGraphModel dx="2072" dy="1121" grid="1" gridSize="10" guides="1" tooltips="1" connect="1" arrows="1" fold="1" page="1" pageScale="1" pageWidth="827" pageHeight="1169" math="0" shadow="0">
      <root>
        <mxCell id="0" />
        <mxCell id="1" parent="0" />
        <mxCell id="WXA7mOeNSCQX8dPOhU4I-1" value="" style="swimlane;startSize=0;align=left;fillStyle=hatch;" parent="1" vertex="1">
          <mxGeometry x="320" y="540" width="200" height="250" as="geometry" />
        </mxCell>
        <mxCell id="WXA7mOeNSCQX8dPOhU4I-2" value="&lt;font&gt;Business Logic&lt;/font&gt;" style="text;html=1;align=left;verticalAlign=middle;resizable=0;points=[];autosize=1;strokeColor=none;fillColor=none;fontSize=18;" parent="WXA7mOeNSCQX8dPOhU4I-1" vertex="1">
          <mxGeometry x="6" y="5" width="140" height="40" as="geometry" />
        </mxCell>
        <mxCell id="WXA7mOeNSCQX8dPOhU4I-47" value="&lt;font style=&quot;font-size: 12px;&quot;&gt;Business Logic&lt;/font&gt;&lt;div&gt;&lt;font style=&quot;font-size: 12px;&quot;&gt;Library&lt;/font&gt;&lt;/div&gt;" style="ellipse;whiteSpace=wrap;html=1;fillColor=none;" parent="WXA7mOeNSCQX8dPOhU4I-1" vertex="1">
          <mxGeometry x="40" y="45" width="120" height="80" as="geometry" />
        </mxCell>
        <mxCell id="WXA7mOeNSCQX8dPOhU4I-48" value="&lt;font style=&quot;font-size: 24px;&quot;&gt;???&lt;/font&gt;" style="ellipse;whiteSpace=wrap;html=1;aspect=fixed;fillColor=none;" parent="WXA7mOeNSCQX8dPOhU4I-1" vertex="1">
          <mxGeometry x="60" y="150" width="80" height="80" as="geometry" />
        </mxCell>
        <mxCell id="WXA7mOeNSCQX8dPOhU4I-49" value="" style="endArrow=classic;html=1;rounded=0;exitX=0.5;exitY=1;exitDx=0;exitDy=0;entryX=0.5;entryY=0;entryDx=0;entryDy=0;" parent="WXA7mOeNSCQX8dPOhU4I-1" source="WXA7mOeNSCQX8dPOhU4I-47" target="WXA7mOeNSCQX8dPOhU4I-48" edge="1">
          <mxGeometry width="50" height="50" relative="1" as="geometry">
            <mxPoint x="390" y="110" as="sourcePoint" />
            <mxPoint x="450" y="60" as="targetPoint" />
          </mxGeometry>
        </mxCell>
        <mxCell id="WXA7mOeNSCQX8dPOhU4I-4" value="" style="endArrow=classic;html=1;rounded=0;entryX=0.75;entryY=0.05;entryDx=0;entryDy=0;exitX=0.23;exitY=0.96;exitDx=0;exitDy=0;exitPerimeter=0;entryPerimeter=0;" parent="1" source="WXA7mOeNSCQX8dPOhU4I-6" target="WXA7mOeNSCQX8dPOhU4I-47" edge="1">
          <mxGeometry width="50" height="50" relative="1" as="geometry">
            <mxPoint x="560" y="280" as="sourcePoint" />
            <mxPoint x="440" y="360" as="targetPoint" />
          </mxGeometry>
        </mxCell>
        <mxCell id="WXA7mOeNSCQX8dPOhU4I-10" value="" style="swimlane;startSize=0;fillStyle=hatch;" parent="1" vertex="1">
          <mxGeometry x="480" y="230" width="200" height="230" as="geometry" />
        </mxCell>
        <mxCell id="WXA7mOeNSCQX8dPOhU4I-11" value="&lt;font style=&quot;font-size: 18px;&quot;&gt;Consumer&lt;/font&gt;" style="text;html=1;align=left;verticalAlign=middle;resizable=0;points=[];autosize=1;strokeColor=none;fillColor=none;" parent="WXA7mOeNSCQX8dPOhU4I-10" vertex="1">
          <mxGeometry x="10" y="3" width="110" height="40" as="geometry" />
        </mxCell>
        <mxCell id="WXA7mOeNSCQX8dPOhU4I-8" value="Consumer&amp;nbsp;&lt;div&gt;Mobile App&lt;/div&gt;" style="ellipse;whiteSpace=wrap;html=1;fillColor=none;" parent="WXA7mOeNSCQX8dPOhU4I-10" vertex="1">
          <mxGeometry x="40" y="43" width="120" height="80" as="geometry" />
        </mxCell>
        <mxCell id="WXA7mOeNSCQX8dPOhU4I-6" value="Consumer API" style="ellipse;whiteSpace=wrap;html=1;fillColor=none;" parent="WXA7mOeNSCQX8dPOhU4I-10" vertex="1">
          <mxGeometry x="50" y="150" width="100" height="50" as="geometry" />
        </mxCell>
        <mxCell id="WXA7mOeNSCQX8dPOhU4I-9" value="" style="endArrow=classic;html=1;rounded=0;entryX=0.5;entryY=0;entryDx=0;entryDy=0;exitX=0.5;exitY=1;exitDx=0;exitDy=0;" parent="WXA7mOeNSCQX8dPOhU4I-10" source="WXA7mOeNSCQX8dPOhU4I-8" target="WXA7mOeNSCQX8dPOhU4I-6" edge="1">
          <mxGeometry width="50" height="50" relative="1" as="geometry">
            <mxPoint x="-60" y="170" as="sourcePoint" />
            <mxPoint x="-10" y="120" as="targetPoint" />
          </mxGeometry>
        </mxCell>
        <mxCell id="WXA7mOeNSCQX8dPOhU4I-20" value="" style="swimlane;startSize=0;fillStyle=solid;fillColor=none;strokeColor=default;" parent="1" vertex="1">
          <mxGeometry x="170" y="230" width="200" height="230" as="geometry" />
        </mxCell>
        <mxCell id="WXA7mOeNSCQX8dPOhU4I-21" value="&lt;font style=&quot;font-size: 18px;&quot;&gt;Authorities&lt;/font&gt;" style="text;html=1;align=left;verticalAlign=middle;resizable=0;points=[];autosize=1;fillColor=none;fontColor=default;strokeColor=none;fillStyle=hatch;" parent="WXA7mOeNSCQX8dPOhU4I-20" vertex="1">
          <mxGeometry x="10" y="3" width="110" height="40" as="geometry" />
        </mxCell>
        <mxCell id="WXA7mOeNSCQX8dPOhU4I-22" value="Authorities&lt;div&gt;Web App&lt;/div&gt;" style="ellipse;whiteSpace=wrap;html=1;fillColor=none;" parent="WXA7mOeNSCQX8dPOhU4I-20" vertex="1">
          <mxGeometry x="40" y="43" width="120" height="80" as="geometry" />
        </mxCell>
        <mxCell id="WXA7mOeNSCQX8dPOhU4I-23" value="Authorities API" style="ellipse;whiteSpace=wrap;html=1;fillColor=none;" parent="WXA7mOeNSCQX8dPOhU4I-20" vertex="1">
          <mxGeometry x="50" y="150" width="100" height="50" as="geometry" />
        </mxCell>
        <mxCell id="WXA7mOeNSCQX8dPOhU4I-24" value="" style="endArrow=classic;html=1;rounded=0;entryX=0.5;entryY=0;entryDx=0;entryDy=0;exitX=0.5;exitY=1;exitDx=0;exitDy=0;" parent="WXA7mOeNSCQX8dPOhU4I-20" source="WXA7mOeNSCQX8dPOhU4I-22" target="WXA7mOeNSCQX8dPOhU4I-23" edge="1">
          <mxGeometry width="50" height="50" relative="1" as="geometry">
            <mxPoint x="-60" y="170" as="sourcePoint" />
            <mxPoint x="-10" y="120" as="targetPoint" />
          </mxGeometry>
        </mxCell>
        <mxCell id="WXA7mOeNSCQX8dPOhU4I-25" value="" style="endArrow=classic;html=1;rounded=0;entryX=0.242;entryY=0.063;entryDx=0;entryDy=0;entryPerimeter=0;" parent="1" source="WXA7mOeNSCQX8dPOhU4I-23" target="WXA7mOeNSCQX8dPOhU4I-47" edge="1">
          <mxGeometry width="50" height="50" relative="1" as="geometry">
            <mxPoint x="710" y="470" as="sourcePoint" />
            <mxPoint x="760" y="420" as="targetPoint" />
          </mxGeometry>
        </mxCell>
        <mxCell id="WXA7mOeNSCQX8dPOhU4I-36" value="" style="group;fillColor=none;fillStyle=hatch;" parent="1" vertex="1" connectable="0">
          <mxGeometry x="30" y="490" width="200" height="310" as="geometry" />
        </mxCell>
        <mxCell id="WXA7mOeNSCQX8dPOhU4I-27" value="" style="swimlane;startSize=0;fillStyle=hatch;" parent="WXA7mOeNSCQX8dPOhU4I-36" vertex="1">
          <mxGeometry width="200" height="210" as="geometry" />
        </mxCell>
        <mxCell id="WXA7mOeNSCQX8dPOhU4I-28" value="&lt;font style=&quot;font-size: 18px;&quot;&gt;Authentication&lt;/font&gt;" style="text;html=1;align=left;verticalAlign=middle;resizable=0;points=[];autosize=1;strokeColor=none;fillColor=none;" parent="WXA7mOeNSCQX8dPOhU4I-27" vertex="1">
          <mxGeometry x="10" y="3" width="140" height="40" as="geometry" />
        </mxCell>
        <mxCell id="WXA7mOeNSCQX8dPOhU4I-29" value="GraphQL API" style="ellipse;whiteSpace=wrap;html=1;fillColor=none;" parent="WXA7mOeNSCQX8dPOhU4I-27" vertex="1">
          <mxGeometry x="45" y="50" width="110" height="40" as="geometry" />
        </mxCell>
        <mxCell id="WXA7mOeNSCQX8dPOhU4I-30" value="Database Access Layer" style="ellipse;whiteSpace=wrap;html=1;fillColor=none;" parent="WXA7mOeNSCQX8dPOhU4I-27" vertex="1">
          <mxGeometry x="45" y="120" width="110" height="70" as="geometry" />
        </mxCell>
        <mxCell id="WXA7mOeNSCQX8dPOhU4I-31" value="" style="endArrow=classic;html=1;rounded=0;entryX=0.5;entryY=0;entryDx=0;entryDy=0;exitX=0.5;exitY=1;exitDx=0;exitDy=0;" parent="WXA7mOeNSCQX8dPOhU4I-27" source="WXA7mOeNSCQX8dPOhU4I-29" target="WXA7mOeNSCQX8dPOhU4I-30" edge="1">
          <mxGeometry width="50" height="50" relative="1" as="geometry">
            <mxPoint x="-60" y="150" as="sourcePoint" />
            <mxPoint x="-10" y="100" as="targetPoint" />
          </mxGeometry>
        </mxCell>
        <mxCell id="WXA7mOeNSCQX8dPOhU4I-32" value="SQL&lt;div&gt;Database&lt;/div&gt;" style="shape=cylinder3;whiteSpace=wrap;html=1;boundedLbl=1;backgroundOutline=1;size=15;fillStyle=hatch;fillColor=none;" parent="WXA7mOeNSCQX8dPOhU4I-36" vertex="1">
          <mxGeometry x="70" y="230" width="60" height="80" as="geometry" />
        </mxCell>
        <mxCell id="WXA7mOeNSCQX8dPOhU4I-33" value="" style="endArrow=classic;html=1;rounded=0;exitX=0.5;exitY=1;exitDx=0;exitDy=0;entryX=0.5;entryY=0;entryDx=0;entryDy=0;entryPerimeter=0;" parent="WXA7mOeNSCQX8dPOhU4I-36" source="WXA7mOeNSCQX8dPOhU4I-30" target="WXA7mOeNSCQX8dPOhU4I-32" edge="1">
          <mxGeometry width="50" height="50" relative="1" as="geometry">
            <mxPoint x="680" y="-60" as="sourcePoint" />
            <mxPoint x="730" y="-110" as="targetPoint" />
          </mxGeometry>
        </mxCell>
        <mxCell id="WXA7mOeNSCQX8dPOhU4I-37" value="" style="group" parent="1" vertex="1" connectable="0">
          <mxGeometry x="600" y="490" width="200" height="310" as="geometry" />
        </mxCell>
        <mxCell id="WXA7mOeNSCQX8dPOhU4I-38" value="" style="swimlane;startSize=0;fillStyle=hatch;gradientColor=none;" parent="WXA7mOeNSCQX8dPOhU4I-37" vertex="1">
          <mxGeometry width="200" height="210" as="geometry" />
        </mxCell>
        <mxCell id="WXA7mOeNSCQX8dPOhU4I-39" value="&lt;font style=&quot;font-size: 18px;&quot;&gt;Authentication&lt;/font&gt;" style="text;html=1;align=left;verticalAlign=middle;resizable=0;points=[];autosize=1;strokeColor=none;fillColor=none;" parent="WXA7mOeNSCQX8dPOhU4I-38" vertex="1">
          <mxGeometry x="10" y="3" width="140" height="40" as="geometry" />
        </mxCell>
        <mxCell id="WXA7mOeNSCQX8dPOhU4I-40" value="GraphQL API" style="ellipse;whiteSpace=wrap;html=1;fillColor=none;" parent="WXA7mOeNSCQX8dPOhU4I-38" vertex="1">
          <mxGeometry x="45" y="50" width="110" height="40" as="geometry" />
        </mxCell>
        <mxCell id="WXA7mOeNSCQX8dPOhU4I-41" value="Database Access Layer" style="ellipse;whiteSpace=wrap;html=1;fillColor=none;" parent="WXA7mOeNSCQX8dPOhU4I-38" vertex="1">
          <mxGeometry x="45" y="120" width="110" height="70" as="geometry" />
        </mxCell>
        <mxCell id="WXA7mOeNSCQX8dPOhU4I-42" value="" style="endArrow=classic;html=1;rounded=0;entryX=0.5;entryY=0;entryDx=0;entryDy=0;exitX=0.5;exitY=1;exitDx=0;exitDy=0;" parent="WXA7mOeNSCQX8dPOhU4I-38" source="WXA7mOeNSCQX8dPOhU4I-40" target="WXA7mOeNSCQX8dPOhU4I-41" edge="1">
          <mxGeometry width="50" height="50" relative="1" as="geometry">
            <mxPoint x="-60" y="150" as="sourcePoint" />
            <mxPoint x="-10" y="100" as="targetPoint" />
          </mxGeometry>
        </mxCell>
        <mxCell id="WXA7mOeNSCQX8dPOhU4I-43" value="SQL&lt;div&gt;Database&lt;/div&gt;" style="shape=cylinder3;whiteSpace=wrap;html=1;boundedLbl=1;backgroundOutline=1;size=15;fillColor=none;fillStyle=hatch;" parent="WXA7mOeNSCQX8dPOhU4I-37" vertex="1">
          <mxGeometry x="70" y="230" width="60" height="80" as="geometry" />
        </mxCell>
        <mxCell id="WXA7mOeNSCQX8dPOhU4I-44" value="" style="endArrow=classic;html=1;rounded=0;exitX=0.5;exitY=1;exitDx=0;exitDy=0;entryX=0.5;entryY=0;entryDx=0;entryDy=0;entryPerimeter=0;" parent="WXA7mOeNSCQX8dPOhU4I-37" source="WXA7mOeNSCQX8dPOhU4I-41" target="WXA7mOeNSCQX8dPOhU4I-43" edge="1">
          <mxGeometry width="50" height="50" relative="1" as="geometry">
            <mxPoint x="680" y="-60" as="sourcePoint" />
            <mxPoint x="730" y="-110" as="targetPoint" />
          </mxGeometry>
        </mxCell>
        <mxCell id="WXA7mOeNSCQX8dPOhU4I-45" value="" style="endArrow=classic;html=1;rounded=0;entryX=0.5;entryY=0;entryDx=0;entryDy=0;" parent="1" source="WXA7mOeNSCQX8dPOhU4I-23" target="WXA7mOeNSCQX8dPOhU4I-29" edge="1">
          <mxGeometry width="50" height="50" relative="1" as="geometry">
            <mxPoint x="80" y="405" as="sourcePoint" />
            <mxPoint x="760" y="320" as="targetPoint" />
          </mxGeometry>
        </mxCell>
        <mxCell id="WXA7mOeNSCQX8dPOhU4I-46" value="" style="endArrow=classic;html=1;rounded=0;exitX=0.79;exitY=0.96;exitDx=0;exitDy=0;entryX=0.5;entryY=0;entryDx=0;entryDy=0;exitPerimeter=0;" parent="1" source="WXA7mOeNSCQX8dPOhU4I-6" target="WXA7mOeNSCQX8dPOhU4I-40" edge="1">
          <mxGeometry width="50" height="50" relative="1" as="geometry">
            <mxPoint x="710" y="370" as="sourcePoint" />
            <mxPoint x="760" y="320" as="targetPoint" />
          </mxGeometry>
        </mxCell>
      </root>
    </mxGraphModel>
  </diagram>
</mxfile>
